M48
INCH,TZ
T1C0.0276
T2C0.0300
T3C0.0315
T4C0.0354
T5C0.0394
T6C0.0400
T7C0.0598
%
G90
G05
T1
X47000Y-27500
X47000Y-30500
X34000Y-41000
X37000Y-41000
X34100Y-54500
X37100Y-54500
X45500Y-44500
X48500Y-44500
X39000Y-27500
X39000Y-30500
X84000Y-27500
X84000Y-30500
X48000Y-27500
X48000Y-30500
X72000Y-44000
X75000Y-44000
X51500Y-27500
X51500Y-30500
X61500Y-27500
X61500Y-30500
X66500Y-39000
X69500Y-39000
X52500Y-27500
X52500Y-30500
X60500Y-27500
X60500Y-30500
X34000Y-50000
X37000Y-50000
X44500Y-43000
X47500Y-43000
X34000Y-35500
X37000Y-35500
X79000Y-49500
X82000Y-49500
X70500Y-37500
X70500Y-40500
X79500Y-27500
X79500Y-30500
X74000Y-27500
X74000Y-30500
X59500Y-33500
X59500Y-36500
X69500Y-27500
X69500Y-30500
X67500Y-41500
X70500Y-41500
X34000Y-36500
X37000Y-36500
X43500Y-27500
X43500Y-30500
X34100Y-53500
X37100Y-53500
X83000Y-27500
X83000Y-30500
X46000Y-37000
X46000Y-40000
X65000Y-27500
X65000Y-30500
X66500Y-37500
X69500Y-37500
X42500Y-27500
X42500Y-30500
X75000Y-27500
X75000Y-30500
X57000Y-27500
X57000Y-30500
X79000Y-54000
X82000Y-54000
X49000Y-39000
X49000Y-42000
X78500Y-53000
X81500Y-53000
X38000Y-27500
X38000Y-30500
X34000Y-45500
X37000Y-45500
X34000Y-31500
X37000Y-31500
X66000Y-27500
X66000Y-30500
X70500Y-27500
X70500Y-30500
X78500Y-27500
X78500Y-30500
X47500Y-38000
X47500Y-41000
X76500Y-44000
X76500Y-47000
X56000Y-27500
X56000Y-30500
X78500Y-51500
X81500Y-51500
X34000Y-32500
X37000Y-32500
X34000Y-49000
X37000Y-49000
X34000Y-40000
X37000Y-40000
X34000Y-44500
X37000Y-44500
X43500Y-41500
X46500Y-41500
T2
X84000Y-42500
X84000Y-43500
T3
X66500Y-33000
X66500Y-36000
X67500Y-33000
X67500Y-36000
X68500Y-33000
X68500Y-36000
X69500Y-33000
X69500Y-36000
X70500Y-33000
X70500Y-36000
X71500Y-33000
X71500Y-36000
X72500Y-33000
X72500Y-36000
X73500Y-33000
X73500Y-36000
X45000Y-33000
X45000Y-36000
X46000Y-33000
X46000Y-36000
X47000Y-33000
X47000Y-36000
X48000Y-33000
X48000Y-36000
X49000Y-33000
X49000Y-36000
X50000Y-33000
X50000Y-36000
X51000Y-33000
X51000Y-36000
X52000Y-33000
X52000Y-36000
X83500Y-53500
X84484Y-53500
X83500Y-49000
X84484Y-49000
X78000Y-44000
X78000Y-46000
X79000Y-45000
X39500Y-37500
X39500Y-38500
X39500Y-39500
X39500Y-40500
X39500Y-41500
X39500Y-42500
X39500Y-43500
X39500Y-44500
X42500Y-37500
X42500Y-38500
X42500Y-39500
X42500Y-40500
X42500Y-41500
X42500Y-42500
X42500Y-43500
X42500Y-44500
T4
X68516Y-54969
X69500Y-53000
X70484Y-54969
X64016Y-54969
X65000Y-53000
X65984Y-54969
X80500Y-43500
X80500Y-46500
X50516Y-54969
X51500Y-53000
X52484Y-54969
X59516Y-54969
X60500Y-53000
X61484Y-54969
X55016Y-54969
X56000Y-53000
X56984Y-54969
T5
X55000Y-26000
X56000Y-26000
X57000Y-26000
X46000Y-26000
X47000Y-26000
X48000Y-26000
X68500Y-26000
X69500Y-26000
X70500Y-26000
X77500Y-26000
X78500Y-26000
X79500Y-26000
X50500Y-26000
X51500Y-26000
X52500Y-26000
X32500Y-49000
X32500Y-50000
X32500Y-51000
X59500Y-26000
X60500Y-26000
X61500Y-26000
X32500Y-44500
X32500Y-45500
X32500Y-46500
X32500Y-53500
X32500Y-54500
X32500Y-55500
X73000Y-26000
X74000Y-26000
X75000Y-26000
X82000Y-26000
X83000Y-26000
X84000Y-26000
X37000Y-26000
X38000Y-26000
X39000Y-26000
X41500Y-26000
X42500Y-26000
X43500Y-26000
X32500Y-31000
X32500Y-32000
X32500Y-33000
X85000Y-36500
X85000Y-38500
X79000Y-38031
X79000Y-40000
X64000Y-26000
X65000Y-26000
X66000Y-26000
X32500Y-35500
X32500Y-36500
X32500Y-37500
X32500Y-40000
X32500Y-41000
X32500Y-42000
T6
X50980Y-44000
X51000Y-50000
X52000Y-44000
X52000Y-50000
X52500Y-46496
X52500Y-47496
X53000Y-44000
X53000Y-50000
X54000Y-44000
X54000Y-50000
X55000Y-44000
X55000Y-50000
X56000Y-44000
X56000Y-50000
X57000Y-44000
X57000Y-50000
X58000Y-44000
X58000Y-50000
X59000Y-44000
X59000Y-50000
X60000Y-44000
X60000Y-50000
X61000Y-44000
X61000Y-50000
X62000Y-44000
X62000Y-50000
X63000Y-44000
X63000Y-50000
X64000Y-44000
X64000Y-50000
X65000Y-44000
X65000Y-50000
X66000Y-44000
X66000Y-50000
X67000Y-44000
X67000Y-50000
X68000Y-44000
X68000Y-50000
X69000Y-44000
X69000Y-50000
X70000Y-44000
X70000Y-50000
T7
X55000Y-23000
X57000Y-23000
X41500Y-23000
X43500Y-23000
X50500Y-23000
X52500Y-23000
X73000Y-23000
X75000Y-23000
X59500Y-23000
X61500Y-23000
X29500Y-49000
X29500Y-51000
X29500Y-31000
X29500Y-33000
X29500Y-26500
X29500Y-28500
X82000Y-23000
X84000Y-23000
X64000Y-23000
X66000Y-23000
X68500Y-23000
X70500Y-23000
X29500Y-40000
X29500Y-42000
X29500Y-53500
X29500Y-55500
X77500Y-23000
X79500Y-23000
X88000Y-36500
X88000Y-38500
X32500Y-23000
X34500Y-23000
X37000Y-23000
X39000Y-23000
X29500Y-44500
X29500Y-46500
X29500Y-35500
X29500Y-37500
X86500Y-23000
X88500Y-23000
X88000Y-48500
X88000Y-50500
X46000Y-23000
X48000Y-23000
X88000Y-53000
X88000Y-55000
T0
M30
