G04 #@! TF.GenerationSoftware,KiCad,Pcbnew,(5.1.5)-3*
G04 #@! TF.CreationDate,2020-04-01T15:34:46+02:00*
G04 #@! TF.ProjectId,stair,73746169-722e-46b6-9963-61645f706362,rev?*
G04 #@! TF.SameCoordinates,Original*
G04 #@! TF.FileFunction,Soldermask,Top*
G04 #@! TF.FilePolarity,Negative*
%FSLAX46Y46*%
G04 Gerber Fmt 4.6, Leading zero omitted, Abs format (unit mm)*
G04 Created by KiCad (PCBNEW (5.1.5)-3) date 2020-04-01 15:34:46*
%MOMM*%
%LPD*%
G04 APERTURE LIST*
%ADD10C,1.800000*%
%ADD11O,1.800000X1.800000*%
%ADD12R,2.400000X2.400000*%
%ADD13C,2.400000*%
%ADD14R,2.000000X2.000000*%
%ADD15O,2.000000X2.000000*%
%ADD16C,2.020000*%
%ADD17R,2.200000X2.200000*%
%ADD18O,2.200000X2.200000*%
%ADD19R,3.400000X3.400000*%
%ADD20C,3.400000*%
%ADD21O,2.127200X2.127200*%
%ADD22O,2.127200X2.650000*%
%ADD23R,2.127200X2.650000*%
%ADD24C,2.000000*%
%ADD25R,1.900000X1.900000*%
%ADD26C,1.900000*%
G04 APERTURE END LIST*
D10*
X171450000Y-105410000D03*
D11*
X179070000Y-105410000D03*
D10*
X207010000Y-130810000D03*
D11*
X199390000Y-130810000D03*
D10*
X207010000Y-134620000D03*
D11*
X199390000Y-134620000D03*
D12*
X200660000Y-101600000D03*
D13*
X200660000Y-96600000D03*
D14*
X186690000Y-83820000D03*
D15*
X168910000Y-91440000D03*
X184150000Y-83820000D03*
X171450000Y-91440000D03*
X181610000Y-83820000D03*
X173990000Y-91440000D03*
X179070000Y-83820000D03*
X176530000Y-91440000D03*
X176530000Y-83820000D03*
X179070000Y-91440000D03*
X173990000Y-83820000D03*
X181610000Y-91440000D03*
X171450000Y-83820000D03*
X184150000Y-91440000D03*
X168910000Y-83820000D03*
X186690000Y-91440000D03*
D10*
X176530000Y-95250000D03*
D11*
X168910000Y-95250000D03*
X151130000Y-85090000D03*
D10*
X151130000Y-92710000D03*
D16*
X128310000Y-139620000D03*
X130810000Y-134620000D03*
X133310000Y-139620000D03*
D14*
X100330000Y-95250000D03*
D15*
X107950000Y-113030000D03*
X100330000Y-97790000D03*
X107950000Y-110490000D03*
X100330000Y-100330000D03*
X107950000Y-107950000D03*
X100330000Y-102870000D03*
X107950000Y-105410000D03*
X100330000Y-105410000D03*
X107950000Y-102870000D03*
X100330000Y-107950000D03*
X107950000Y-100330000D03*
X100330000Y-110490000D03*
X107950000Y-97790000D03*
X100330000Y-113030000D03*
X107950000Y-95250000D03*
D16*
X151170000Y-139620000D03*
X153670000Y-134620000D03*
X156170000Y-139620000D03*
X174030000Y-139620000D03*
X176530000Y-134620000D03*
X179030000Y-139620000D03*
D14*
X132080000Y-83820000D03*
D15*
X114300000Y-91440000D03*
X129540000Y-83820000D03*
X116840000Y-91440000D03*
X127000000Y-83820000D03*
X119380000Y-91440000D03*
X124460000Y-83820000D03*
X121920000Y-91440000D03*
X121920000Y-83820000D03*
X124460000Y-91440000D03*
X119380000Y-83820000D03*
X127000000Y-91440000D03*
X116840000Y-83820000D03*
X129540000Y-91440000D03*
X114300000Y-83820000D03*
X132080000Y-91440000D03*
D16*
X162600000Y-139620000D03*
X165100000Y-134620000D03*
X167600000Y-139620000D03*
D10*
X130810000Y-69850000D03*
D11*
X130810000Y-77470000D03*
D10*
X96520000Y-69850000D03*
D11*
X96520000Y-77470000D03*
D10*
X86360000Y-115570000D03*
D11*
X93980000Y-115570000D03*
D10*
X86360000Y-104140000D03*
D11*
X93980000Y-104140000D03*
D10*
X86614000Y-138430000D03*
D11*
X94234000Y-138430000D03*
D10*
X107950000Y-69850000D03*
D11*
X107950000Y-77470000D03*
D10*
X86360000Y-127000000D03*
D11*
X93980000Y-127000000D03*
D10*
X190500000Y-111760000D03*
D11*
X182880000Y-111760000D03*
D10*
X190500000Y-69850000D03*
D11*
X190500000Y-77470000D03*
D10*
X113030000Y-109220000D03*
D11*
X120650000Y-109220000D03*
D10*
X86360000Y-92710000D03*
D11*
X93980000Y-92710000D03*
D10*
X86360000Y-82550000D03*
D11*
X93980000Y-82550000D03*
D10*
X119380000Y-69850000D03*
D11*
X119380000Y-77470000D03*
D10*
X153670000Y-69850000D03*
D11*
X153670000Y-77470000D03*
D10*
X176530000Y-69850000D03*
D11*
X176530000Y-77470000D03*
D10*
X124460000Y-99060000D03*
D11*
X124460000Y-106680000D03*
D10*
X187960000Y-69850000D03*
D11*
X187960000Y-77470000D03*
D10*
X165100000Y-69850000D03*
D11*
X165100000Y-77470000D03*
D10*
X142240000Y-69850000D03*
D11*
X142240000Y-77470000D03*
D17*
X82550000Y-124460000D03*
D18*
X82550000Y-127000000D03*
X82550000Y-129540000D03*
D17*
X82550000Y-90170000D03*
D18*
X82550000Y-92710000D03*
X82550000Y-95250000D03*
D17*
X82550000Y-78740000D03*
D18*
X82550000Y-81280000D03*
X82550000Y-83820000D03*
D17*
X99060000Y-66040000D03*
D18*
X96520000Y-66040000D03*
X93980000Y-66040000D03*
D19*
X190500000Y-58420000D03*
D20*
X185420000Y-58420000D03*
D17*
X110490000Y-66040000D03*
D18*
X107950000Y-66040000D03*
X105410000Y-66040000D03*
D17*
X121920000Y-66040000D03*
D18*
X119380000Y-66040000D03*
X116840000Y-66040000D03*
D17*
X82550000Y-113030000D03*
D18*
X82550000Y-115570000D03*
X82550000Y-118110000D03*
D17*
X133350000Y-66040000D03*
D18*
X130810000Y-66040000D03*
X128270000Y-66040000D03*
D17*
X144780000Y-66040000D03*
D18*
X142240000Y-66040000D03*
X139700000Y-66040000D03*
D17*
X156210000Y-66040000D03*
D18*
X153670000Y-66040000D03*
X151130000Y-66040000D03*
D17*
X179070000Y-66040000D03*
D18*
X176530000Y-66040000D03*
X173990000Y-66040000D03*
D17*
X167640000Y-66040000D03*
D18*
X165100000Y-66040000D03*
X162560000Y-66040000D03*
D17*
X190500000Y-66040000D03*
D18*
X187960000Y-66040000D03*
X185420000Y-66040000D03*
D17*
X82550000Y-101600000D03*
D18*
X82550000Y-104140000D03*
X82550000Y-106680000D03*
D10*
X176530000Y-99060000D03*
D11*
X168910000Y-99060000D03*
D10*
X120650000Y-96520000D03*
D11*
X120650000Y-104140000D03*
D10*
X116840000Y-101600000D03*
D11*
X116840000Y-93980000D03*
D10*
X115570000Y-113030000D03*
D11*
X123190000Y-113030000D03*
D10*
X179070000Y-95250000D03*
D11*
X179070000Y-102870000D03*
D10*
X118110000Y-105410000D03*
D11*
X110490000Y-105410000D03*
D21*
X133350000Y-120640000D03*
X133350000Y-118100000D03*
D22*
X129489200Y-111760000D03*
X132080000Y-111760000D03*
X134620000Y-111760000D03*
X137160000Y-111760000D03*
X139700000Y-111760000D03*
X142240000Y-111760000D03*
X144780000Y-111760000D03*
X147320000Y-111760000D03*
X149860000Y-111760000D03*
X152400000Y-111760000D03*
X154940000Y-111760000D03*
X157480000Y-111760000D03*
X160020000Y-111760000D03*
X162560000Y-111760000D03*
X165100000Y-111760000D03*
X167640000Y-111760000D03*
X170180000Y-111760000D03*
X172720000Y-111760000D03*
X175260000Y-111760000D03*
X177800000Y-111760000D03*
X177800000Y-127000000D03*
X175260000Y-127000000D03*
X172720000Y-127000000D03*
X170180000Y-127000000D03*
X167640000Y-127000000D03*
X165100000Y-127000000D03*
X162560000Y-127000000D03*
X160020000Y-127000000D03*
X157480000Y-127000000D03*
X154940000Y-127000000D03*
X152400000Y-127000000D03*
X149860000Y-127000000D03*
X147320000Y-127000000D03*
X144780000Y-127000000D03*
X142240000Y-127000000D03*
X139700000Y-127000000D03*
X137160000Y-127000000D03*
X134620000Y-127000000D03*
X132080000Y-127000000D03*
D23*
X129540000Y-127000000D03*
D10*
X133350000Y-69850000D03*
D11*
X133350000Y-77470000D03*
D10*
X121920000Y-69850000D03*
D11*
X121920000Y-77470000D03*
D16*
X139740000Y-139620000D03*
X142240000Y-134620000D03*
X144740000Y-139620000D03*
D10*
X86360000Y-101600000D03*
D11*
X93980000Y-101600000D03*
D10*
X167640000Y-69850000D03*
D11*
X167640000Y-77470000D03*
D10*
X144780000Y-69850000D03*
D11*
X144780000Y-77470000D03*
D10*
X110490000Y-69850000D03*
D11*
X110490000Y-77470000D03*
D10*
X99060000Y-69850000D03*
D11*
X99060000Y-77470000D03*
D10*
X86360000Y-113030000D03*
D11*
X93980000Y-113030000D03*
D10*
X86360000Y-90170000D03*
D11*
X93980000Y-90170000D03*
D10*
X86614000Y-135890000D03*
D11*
X94234000Y-135890000D03*
D10*
X156210000Y-69850000D03*
D11*
X156210000Y-77470000D03*
D10*
X86360000Y-80010000D03*
D11*
X93980000Y-80010000D03*
D10*
X86360000Y-124460000D03*
D11*
X93980000Y-124460000D03*
D10*
X179070000Y-69850000D03*
D11*
X179070000Y-77470000D03*
D19*
X144780000Y-58420000D03*
D20*
X139700000Y-58420000D03*
D19*
X156210000Y-58420000D03*
D20*
X151130000Y-58420000D03*
D19*
X167640000Y-58420000D03*
D20*
X162560000Y-58420000D03*
D19*
X179070000Y-58420000D03*
D20*
X173990000Y-58420000D03*
D19*
X99060000Y-58420000D03*
D20*
X93980000Y-58420000D03*
D19*
X87630000Y-58420000D03*
D20*
X82550000Y-58420000D03*
D19*
X74930000Y-101600000D03*
D20*
X74930000Y-106680000D03*
D17*
X82550000Y-135890000D03*
D18*
X82550000Y-138430000D03*
X82550000Y-140970000D03*
D19*
X74930000Y-78740000D03*
D20*
X74930000Y-83820000D03*
D19*
X121920000Y-58420000D03*
D20*
X116840000Y-58420000D03*
D19*
X74930000Y-113030000D03*
D20*
X74930000Y-118110000D03*
D19*
X74930000Y-124460000D03*
D20*
X74930000Y-129540000D03*
D19*
X74930000Y-67310000D03*
D20*
X74930000Y-72390000D03*
D19*
X74930000Y-135890000D03*
D20*
X74930000Y-140970000D03*
D19*
X74930000Y-90170000D03*
D20*
X74930000Y-95250000D03*
D19*
X110490000Y-58420000D03*
D20*
X105410000Y-58420000D03*
D19*
X133350000Y-58420000D03*
D20*
X128270000Y-58420000D03*
D24*
X214590000Y-135890000D03*
D14*
X212090000Y-135890000D03*
D10*
X194310000Y-119380000D03*
D11*
X194310000Y-111760000D03*
D10*
X210820000Y-69850000D03*
D11*
X210820000Y-77470000D03*
D10*
X199390000Y-69850000D03*
D11*
X199390000Y-77470000D03*
D10*
X208280000Y-125730000D03*
D11*
X200660000Y-125730000D03*
D10*
X208280000Y-137160000D03*
D11*
X200660000Y-137160000D03*
D10*
X213360000Y-69850000D03*
D11*
X213360000Y-77470000D03*
D10*
X201930000Y-69850000D03*
D11*
X201930000Y-77470000D03*
D25*
X198120000Y-111760000D03*
D26*
X198120000Y-116840000D03*
X200660000Y-114300000D03*
D24*
X214590000Y-124460000D03*
D14*
X212090000Y-124460000D03*
D19*
X224790000Y-58420000D03*
D20*
X219710000Y-58420000D03*
D19*
X201930000Y-58420000D03*
D20*
X196850000Y-58420000D03*
D19*
X213360000Y-58420000D03*
D20*
X208280000Y-58420000D03*
D17*
X201930000Y-66040000D03*
D18*
X199390000Y-66040000D03*
X196850000Y-66040000D03*
D17*
X213360000Y-66040000D03*
D18*
X210820000Y-66040000D03*
X208280000Y-66040000D03*
D17*
X204470000Y-110490000D03*
D18*
X204470000Y-118110000D03*
D19*
X223520000Y-139700000D03*
D20*
X223520000Y-134620000D03*
D19*
X223520000Y-128270000D03*
D20*
X223520000Y-123190000D03*
D19*
X223520000Y-97790000D03*
D20*
X223520000Y-92710000D03*
M02*
